<?xml version="1.0" encoding="UTF-8"?>
<svg width="34px" height="61px" viewBox="0 0 34 61" version="1.1" xmlns="http://www.w3.org/2000/svg" xmlns:xlink="http://www.w3.org/1999/xlink">
    <!-- Generator: Sketch 47 (45396) - http://www.bohemiancoding.com/sketch -->
    <title>140-charging-battery-interaction-communication-essential-cartoony</title>
    <desc>Created with Sketch.</desc>
    <defs></defs>
    <g id="Page-1" stroke="none" stroke-width="1" fill="none" fill-rule="evenodd">
        <g id="140-charging-battery-interaction-communication-essential-cartoony" transform="translate(1.000000, 1.000000)">
            <path d="M30.5359,4.36 L17.4639,4.36 C16.1029,4.36 14.9999,5.463 14.9999,6.824 L14.9999,55.896 C14.9999,57.257 16.1029,58.36 17.4639,58.36 L30.5359,58.36 C31.8969,58.36 32.9999,57.257 32.9999,55.896 L32.9999,37.824 L32.9999,30.896 L32.9999,6.824 C32.9999,5.463 31.8969,4.36 30.5359,4.36" id="Fill-1047" fill="#00DA6C" fill-rule="nonzero"></path>
            <polygon id="Fill-1048" fill="#00DA6C" fill-rule="nonzero" points="10 4.36 20 4.36 20 0.36 10 0.36"></polygon>
            <path d="M16,34.36 L18,30.896 L18,6.824 C18,5.463 16.897,4.36 15.536,4.36 L2.464,4.36 C1.103,4.36 0,5.463 0,6.824 L0,55.896 C0,57.257 1.103,58.36 2.464,58.36 L15.536,58.36 C16.897,58.36 18,57.257 18,55.896 L18,37.824 L16,34.36 Z" id="Fill-1049" fill="#FFFFFF" fill-rule="nonzero"></path>
            <path d="M27.5359,4.36 L14.4639,4.36 C13.1029,4.36 11.9999,5.463 11.9999,6.824 L11.9999,55.896 C11.9999,57.257 13.1029,58.36 14.4639,58.36 L27.5359,58.36 C28.8969,58.36 29.9999,57.257 29.9999,55.896 L29.9999,37.824 L29.9999,30.896 L29.9999,6.824 C29.9999,5.463 28.8969,4.36 27.5359,4.36" id="Fill-1050" fill="#00AD55" fill-rule="nonzero"></path>
            <path d="M24.5359,4.36 L5.4639,4.36 C4.1029,4.36 2.9999,5.463 2.9999,6.824 L2.9999,55.896 C2.9999,57.257 4.1029,58.36 5.4639,58.36 L24.5359,58.36 C25.8969,58.36 26.9999,57.257 26.9999,55.896 L26.9999,37.824 L26.9999,30.896 L26.9999,6.824 C26.9999,5.463 25.8969,4.36 24.5359,4.36" id="Fill-1051" fill="#00DA6C" fill-rule="nonzero"></path>
            <path d="M22,29.36 L18,29.36 L18,16.428 C18.012,16.37 17.936,16.335 17.9,16.381 L8,32.36 L13,32.36 L13.002,46.289 C12.986,46.348 13.062,46.386 13.1,46.339 L22,29.36 Z" id="Fill-1052" fill="#FFA800" fill-rule="nonzero"></path>
            <path d="M15,29.36 L15,20.169 C14.625,20.854 14.153,21.496 13.579,22.106 C13.675,22.433 13.623,22.804 13.327,23.125 C12.896,23.594 12.451,24.051 12.003,24.506 C12.111,24.771 12.114,25.083 11.934,25.406 C11.571,26.059 11.025,26.588 10.484,27.113 C10.557,27.383 10.537,27.674 10.372,27.906 C9.696,28.853 9.197,29.91 8.527,30.86 C8.646,31.128 8.66,31.448 8.497,31.781 C8.398,31.982 8.262,32.176 8.111,32.36 L9.042,32.36 C9.382,31.792 10.128,31.503 10.64,32.158 C10.819,32.386 10.98,32.623 11.135,32.863 C11.163,32.85 11.183,32.828 11.212,32.817 C11.777,32.601 12.379,33.056 12.543,33.572 C13.142,35.458 13.445,37.568 13.605,39.653 L19,29.36 L15,29.36 Z" id="Fill-1053" fill="#FFE100" fill-rule="nonzero"></path>
            <path d="M27.5358,58.36 L2.4638,58.36 C1.1028,58.36 -0.0002,57.257 -0.0002,55.896 L-0.0002,6.824 C-0.0002,5.463 1.1028,4.36 2.4638,4.36 L27.5358,4.36 C28.8968,4.36 29.9998,5.463 29.9998,6.824 L29.9998,55.896 C29.9998,57.257 28.8968,58.36 27.5358,58.36 L27.5358,58.36 Z" id="Stroke-3902" stroke="#000000" stroke-width="2" stroke-linecap="round"></path>
            <polygon id="Stroke-3903" stroke="#000000" stroke-width="2" stroke-linecap="round" points="10 4.36 20 4.36 20 0.36 10 0.36"></polygon>
            <path d="M22,29.36 L18,29.36 L18,16.428 C18.012,16.37 17.936,16.335 17.9,16.381 L8,32.36 L13,32.36 L13.002,46.289 C12.986,46.348 13.062,46.386 13.1,46.339 L22,29.36 L22,29.36 Z" id="Stroke-3904" stroke="#000000" stroke-width="2"></path>
        </g>
    </g>
</svg>